<svg width="59.145" height="88.822" viewBox="0 0 59.145 88.822" xmlns="http://www.w3.org/2000/svg"><g id="svgGroup" stroke-linecap="round" fill-rule="evenodd" font-size="9pt" stroke="#e92908" stroke-width="0.55mm" fill="#e92908" style="stroke:#e92908;stroke-width:0.55mm;fill:#e92908"><path d="M 33.867 88.8 L 33.167 88.4 L 32.867 88.1 Q 32.767 87.7 32.567 87.35 Q 32.376 87.016 32.458 86.637 A 1.195 1.195 0 0 1 32.467 86.6 A 6.526 6.526 0 0 0 32.395 85.623 A 5.903 5.903 0 0 0 32.367 85.45 Q 32.274 84.939 32.094 84.557 A 2.61 2.61 0 0 0 32.067 84.5 L 31.867 83.7 A 3.751 3.751 0 0 0 31.536 82.513 A 5.144 5.144 0 0 0 31.067 81.7 A 11.922 11.922 0 0 1 30.261 80.222 A 10.17 10.17 0 0 1 29.967 79.5 Q 29.567 78.4 29.367 77.2 A 7.997 7.997 0 0 0 28.911 75.545 A 7.122 7.122 0 0 0 28.667 75 A 76.723 76.723 0 0 1 27.917 73.294 A 85.567 85.567 0 0 1 27.667 72.7 L 27.067 71.4 Q 26.866 70.932 26.576 70.687 A 1.129 1.129 0 0 0 26.267 70.5 A 0.653 0.653 0 0 1 26.09 70.404 Q 25.854 70.231 25.567 69.8 Q 25.398 69.716 25.229 69.417 A 2.586 2.586 0 0 1 25.167 69.3 Q 24.867 68.6 24.517 67.95 Q 24.167 67.3 23.767 66.6 Q 23.367 66 23.017 65.45 Q 22.667 64.9 22.367 64.3 A 2.358 2.358 0 0 0 22.192 63.906 A 2.891 2.891 0 0 0 22.067 63.7 L 21.667 63.1 Q 21.467 62.7 21.217 62.25 Q 20.967 61.8 20.767 61.4 L 20.167 60.2 Q 19.867 59.7 19.617 59.25 Q 19.367 58.8 19.167 58.4 A 9.591 9.591 0 0 0 18.42 56.803 A 8.591 8.591 0 0 0 18.167 56.4 Q 17.567 55.5 16.967 54.5 Q 16.836 54.24 16.706 54.064 A 1.468 1.468 0 0 0 16.567 53.9 A 2.358 2.358 0 0 0 16.392 53.506 A 2.891 2.891 0 0 0 16.267 53.3 L 15.867 52.7 Q 15.467 52 15.117 51.3 Q 14.767 50.6 14.567 49.9 Q 14.481 49.556 14.395 49.286 A 6.731 6.731 0 0 0 14.367 49.2 A 2.358 2.358 0 0 0 14.192 48.806 A 2.891 2.891 0 0 0 14.067 48.6 Q 13.867 48.1 13.667 47.65 Q 13.467 47.2 13.267 46.7 L 13.267 46.65 A 0.078 0.078 0 0 0 13.26 46.62 Q 13.242 46.578 13.18 46.514 A 1.045 1.045 0 0 0 13.167 46.5 Q 12.767 45.7 12.467 44.9 A 37.454 37.454 0 0 0 12.092 43.939 A 31.494 31.494 0 0 0 11.867 43.4 Q 11.467 42.4 10.967 41.5 L 9.967 39.7 L 9.667 39 A 31.21 31.21 0 0 0 7.773 34.65 A 35.997 35.997 0 0 0 6.967 33.2 A 0.451 0.451 0 0 1 6.915 33.139 Q 6.867 33.07 6.867 33 Q 6.867 32.917 6.798 32.834 A 0.497 0.497 0 0 0 6.767 32.8 A 2.498 2.498 0 0 0 6.34 31.729 A 3.089 3.089 0 0 0 6.167 31.5 A 0.144 0.144 0 0 1 6.127 31.495 Q 6.083 31.482 6.071 31.437 A 0.147 0.147 0 0 1 6.067 31.4 Q 6.067 31.3 5.967 31.2 A 23.271 23.271 0 0 0 5.697 30.556 A 27.627 27.627 0 0 0 5.517 30.15 Q 5.267 29.6 4.967 29.1 A 0.676 0.676 0 0 0 4.939 28.904 A 0.576 0.576 0 0 0 4.867 28.75 A 2.009 2.009 0 0 0 4.779 28.628 Q 4.732 28.568 4.684 28.518 A 1.169 1.169 0 0 0 4.667 28.5 A 6.16 6.16 0 0 1 4.245 27.906 A 5.026 5.026 0 0 1 4.017 27.5 A 7.832 7.832 0 0 1 3.724 26.836 A 9.433 9.433 0 0 1 3.567 26.4 Q 3.367 25.9 3.167 25.45 A 21.503 21.503 0 0 0 2.87 24.81 A 18.586 18.586 0 0 0 2.767 24.6 L 2.567 24.3 A 18.79 18.79 0 0 1 2.106 23.445 A 15.713 15.713 0 0 1 1.867 22.95 A 16.437 16.437 0 0 0 1.453 22.118 A 19.636 19.636 0 0 0 1.167 21.6 A 6.395 6.395 0 0 0 1.109 21.387 Q 1.009 21.043 0.803 20.413 A 83.467 83.467 0 0 0 0.667 20 A 80.261 80.261 0 0 1 0.506 19.513 Q 0.291 18.853 0.2 18.525 A 5.193 5.193 0 0 1 0.167 18.4 A 0.746 0.746 0 0 1 0.114 18.256 Q 0.067 18.075 0.067 17.8 Q 0.067 17.2 0.017 16.6 A 4.815 4.815 0 0 1 0 16.2 A 4.858 4.858 0 0 1 0.067 15.4 A 7.138 7.138 0 0 1 0.517 13.326 A 5.714 5.714 0 0 1 2.067 11.1 A 7.117 7.117 0 0 1 2.996 10.464 A 5.194 5.194 0 0 1 4.067 10 A 0.963 0.963 0 0 1 4.292 9.919 A 0.817 0.817 0 0 1 4.467 9.9 Q 4.6 9.9 4.689 9.855 A 0.296 0.296 0 0 0 4.767 9.8 A 3.556 3.556 0 0 1 5.278 9.692 Q 5.471 9.667 5.656 9.667 A 2.497 2.497 0 0 1 6.067 9.7 Q 6.667 9.8 7.267 10 L 8.867 10.9 A 2.984 2.984 0 0 1 9.567 11.335 A 2.199 2.199 0 0 1 10.267 12.4 Q 10.467 12.9 10.717 13.35 Q 10.967 13.8 11.267 14.2 A 10.233 10.233 0 0 1 12.208 15.637 A 9.119 9.119 0 0 1 12.417 16.05 Q 12.867 17 13.267 18 Q 13.567 18.7 13.817 19.4 A 12.301 12.301 0 0 0 14.184 20.315 A 10.548 10.548 0 0 0 14.367 20.7 L 15.867 24.3 L 16.667 26.1 L 17.467 27.9 L 17.767 28.7 A 90.565 90.565 0 0 0 18.561 30.619 A 98.909 98.909 0 0 0 18.617 30.75 Q 19.067 31.8 19.367 32.9 Q 19.567 33.5 19.867 34.05 A 35.903 35.903 0 0 1 20.392 35.051 A 39.751 39.751 0 0 1 20.467 35.2 Q 20.667 35.6 20.867 36.1 L 21.267 37.1 Q 21.349 37.183 21.364 37.334 A 0.703 0.703 0 0 1 21.367 37.4 Q 21.367 37.534 21.411 37.623 A 0.296 0.296 0 0 0 21.467 37.7 Q 21.867 38.3 22.067 38.9 L 22.467 40.1 Q 23.467 42.4 24.517 44.7 Q 25.567 47 26.667 49.3 A 9.112 9.112 0 0 0 27.13 50.425 A 9.995 9.995 0 0 0 27.167 50.5 Q 27.467 51.1 27.667 51.7 L 28.567 53.4 Q 28.767 53.9 28.967 54.45 Q 29.167 55 29.467 55.5 Q 29.767 56 29.967 56.55 Q 30.167 57.1 30.367 57.6 L 31.467 59.7 A 9.669 9.669 0 0 0 31.916 60.499 Q 32.167 60.9 32.267 61.1 Q 32.367 61.3 32.467 61.55 Q 32.567 61.8 32.667 62 A 0.458 0.458 0 0 1 32.773 62.078 Q 32.925 62.222 33.124 62.573 A 5.687 5.687 0 0 1 33.167 62.65 A 7.651 7.651 0 0 1 33.219 62.748 Q 33.416 63.121 33.388 63.186 A 0.021 0.021 0 0 1 33.367 63.2 A 1.191 1.191 0 0 0 33.466 63.235 Q 33.81 63.338 33.929 63.104 A 0.495 0.495 0 0 0 33.967 63 A 10.684 10.684 0 0 1 34.109 62.487 A 13.17 13.17 0 0 1 34.217 62.15 Q 34.367 61.7 34.467 61.3 A 13.493 13.493 0 0 0 34.767 59.7 L 34.967 58.1 Q 35.167 57 35.317 55.95 Q 35.467 54.9 35.667 53.9 L 35.667 53.4 A 1.494 1.494 0 0 1 35.681 53.189 Q 35.704 53.025 35.767 52.9 A 53.794 53.794 0 0 1 36.385 48.419 A 47.464 47.464 0 0 1 36.667 47 A 1.412 1.412 0 0 1 36.672 46.87 Q 36.684 46.743 36.721 46.667 A 0.241 0.241 0 0 1 36.767 46.6 A 20.388 20.388 0 0 1 37.123 43.789 A 18.464 18.464 0 0 1 37.217 43.35 Q 37.567 41.8 37.867 40.2 Q 38.067 38.8 38.367 37.4 L 38.967 34.6 Q 39.367 32.9 39.767 31.15 Q 40.167 29.4 40.567 27.7 L 41.467 23.9 Q 41.667 23.1 41.867 22.4 L 42.267 21 Q 42.467 20.1 42.717 19.25 A 10.844 10.844 0 0 0 43.003 18.029 A 9.433 9.433 0 0 0 43.067 17.6 Q 43.267 16.9 43.467 16.25 A 68.884 68.884 0 0 0 43.817 15.074 A 76.222 76.222 0 0 0 43.867 14.9 L 44.767 12.4 Q 44.867 12 44.967 11.55 Q 45.067 11.1 45.067 10.7 A 4.209 4.209 0 0 1 45.033 10.178 A 3.542 3.542 0 0 1 45.167 9.2 L 45.567 7.8 Q 46.067 6.4 46.767 5.6 Q 47.067 5.3 47.267 4.95 Q 47.467 4.6 47.667 4.2 A 0.915 0.915 0 0 0 47.772 3.973 Q 47.846 3.746 47.862 3.405 A 4.287 4.287 0 0 0 47.867 3.2 Q 47.867 2.631 47.417 2.512 A 0.833 0.833 0 0 0 47.367 2.5 Q 47.125 2.339 47.078 2.178 A 0.277 0.277 0 0 1 47.067 2.1 A 0.881 0.881 0 0 0 47.138 1.891 Q 47.16 1.792 47.165 1.679 A 1.684 1.684 0 0 0 47.167 1.6 A 2.453 2.453 0 0 1 47.266 1.346 Q 47.382 1.094 47.526 0.979 A 0.451 0.451 0 0 1 47.667 0.9 L 49.267 0.2 A 0.963 0.963 0 0 1 49.492 0.119 A 0.817 0.817 0 0 1 49.667 0.1 Q 49.8 0.1 49.889 0.055 A 0.296 0.296 0 0 0 49.967 0 A 0.739 0.739 0 0 1 50.23 0.045 A 0.664 0.664 0 0 1 50.467 0.2 A 1.374 1.374 0 0 0 50.933 0.502 A 1.887 1.887 0 0 0 51.267 0.6 Q 51.767 0.7 52.367 0.8 L 53.567 1 Q 53.867 1.1 54.167 1.15 Q 54.467 1.2 54.767 1.4 Q 55.267 1.8 55.817 2.25 Q 56.367 2.7 56.767 3.3 Q 57.467 4.3 57.967 5.6 L 58.267 6.7 A 4.479 4.479 0 0 1 58.686 7.584 Q 58.865 8.091 58.967 8.7 A 9.067 9.067 0 0 1 59.137 10.064 Q 59.216 11.786 58.567 13.3 Q 58.467 13.6 58.317 13.95 Q 58.167 14.3 57.967 14.6 Q 57.467 15.4 57.117 16.3 Q 56.767 17.2 56.567 18.1 Q 56.467 19 56.167 19.85 Q 55.867 20.7 55.467 21.5 L 54.567 23.9 Q 54.467 24.1 54.367 24.35 Q 54.267 24.6 54.167 24.8 L 54.167 25 A 0.529 0.529 0 0 0 54.106 25.075 Q 54.036 25.176 53.967 25.35 Q 53.886 25.552 53.87 25.722 A 0.862 0.862 0 0 0 53.867 25.8 A 4.225 4.225 0 0 1 53.476 27.081 A 4.027 4.027 0 0 1 53.467 27.1 Q 53.181 27.672 53.258 28.425 A 3.42 3.42 0 0 0 53.267 28.5 A 0.308 0.308 0 0 0 53.314 28.659 Q 53.375 28.761 53.512 28.862 A 1.414 1.414 0 0 0 53.567 28.9 Q 53.767 28.9 53.967 28.95 Q 54.167 29 54.367 29 L 54.667 29.3 A 0.432 0.432 0 0 1 54.77 29.37 A 0.301 0.301 0 0 1 54.867 29.6 Q 54.867 29.8 54.667 29.9 Q 54.167 30.4 53.567 30.4 A 1.906 1.906 0 0 0 53.368 30.411 Q 53.249 30.423 53.117 30.45 A 2.842 2.842 0 0 1 52.907 30.484 Q 52.779 30.5 52.667 30.5 Q 52.498 30.669 52.329 31.052 A 4.605 4.605 0 0 0 52.267 31.2 Q 52.184 31.365 52.136 31.597 A 2.598 2.598 0 0 0 52.117 31.7 A 0.95 0.95 0 0 1 52.01 32.012 A 0.862 0.862 0 0 1 51.867 32.2 A 1.418 1.418 0 0 1 50.893 33.012 Q 50.574 33.1 50.167 33.1 L 49.467 33.1 Q 49.267 33.2 49.067 33.7 Q 48.567 35.3 48.067 36.85 A 24.236 24.236 0 0 0 47.305 39.888 A 26.562 26.562 0 0 0 47.267 40.1 Q 47.167 40.8 46.967 41.45 Q 46.767 42.1 46.567 42.9 Q 46.167 44.7 45.717 46.5 Q 45.267 48.3 44.967 50.1 Q 44.867 50.6 44.767 51.2 A 5.686 5.686 0 0 1 44.603 51.911 A 4.742 4.742 0 0 1 44.467 52.3 Q 44.267 53.3 44.217 54.35 Q 44.167 55.4 43.967 56.4 L 43.667 59.8 A 3.4 3.4 0 0 0 43.571 60.469 A 3.918 3.918 0 0 0 43.567 60.65 Q 43.567 61.1 43.467 61.5 Q 43.367 61.9 43.317 62.2 A 3.407 3.407 0 0 0 43.282 62.482 Q 43.271 62.627 43.268 62.79 A 6.069 6.069 0 0 0 43.267 62.9 Q 42.967 64.2 42.717 65.55 Q 42.467 66.9 42.167 68.3 Q 42.067 69.2 41.817 70.05 Q 41.567 70.9 41.367 71.7 Q 41.267 72.1 41.167 72.4 A 2.358 2.358 0 0 1 40.992 72.794 A 2.891 2.891 0 0 1 40.867 73 A 8.421 8.421 0 0 0 40.609 73.647 Q 40.497 73.969 40.43 74.261 A 4.196 4.196 0 0 0 40.367 74.6 Q 40.233 74.734 40.189 74.867 A 0.419 0.419 0 0 0 40.167 75 Q 40.167 75.927 39.963 76.599 A 3.165 3.165 0 0 1 39.767 77.1 A 1.634 1.634 0 0 0 39.71 77.33 Q 39.667 77.572 39.667 77.9 A 0.853 0.853 0 0 1 39.488 78.423 A 1.07 1.07 0 0 1 39.467 78.45 A 0.917 0.917 0 0 0 39.308 78.738 A 0.837 0.837 0 0 0 39.267 79 Q 39.267 79.2 39.067 79.2 A 0.754 0.754 0 0 0 38.626 79.581 A 0.991 0.991 0 0 0 38.617 79.6 A 2.165 2.165 0 0 1 38.449 79.883 A 1.671 1.671 0 0 1 38.267 80.1 A 21.552 21.552 0 0 1 38.014 80.431 Q 37.857 80.631 37.717 80.8 A 1.409 1.409 0 0 1 37.45 81.043 Q 37.313 81.141 37.139 81.225 A 2.832 2.832 0 0 1 36.967 81.3 Q 36.781 81.486 36.681 81.672 A 1.142 1.142 0 0 0 36.667 81.7 A 9.166 9.166 0 0 1 36.482 82.549 A 10.846 10.846 0 0 1 36.367 82.95 Q 36.167 83.6 36.167 84.3 Q 36.167 84.6 36.117 84.9 Q 36.067 85.2 36.067 85.5 Q 36.167 86.1 36.017 86.7 A 9.268 9.268 0 0 1 35.815 87.394 A 7.527 7.527 0 0 1 35.667 87.8 A 0.897 0.897 0 0 1 35.507 88.123 Q 35.339 88.345 35.017 88.55 Q 34.467 88.9 33.867 88.8 Z" vector-effect="non-scaling-stroke"/></g></svg>